<svg width="27" height="26" viewBox="0 0 27 26" fill="none" xmlns="http://www.w3.org/2000/svg">
<path d="M13.5 25C20.4036 25 26 19.6274 26 13C26 6.37258 20.4036 1 13.5 1M13.5 25C6.59644 25 1 19.6274 1 13C1 6.37258 6.59644 1 13.5 1M13.5 25C16.4068 25 18.7632 19.6274 18.7632 13C18.7632 6.37258 16.4068 1 13.5 1M13.5 25C10.5932 25 8.23684 19.6274 8.23684 13C8.23684 6.37258 10.5932 1 13.5 1M1.65789 9.21053H25.3421M1.65789 16.7895H25.3421" stroke="white" stroke-width="2" stroke-linecap="round"/>
</svg>
