<svg width="156" height="30" viewBox="0 0 156 30" fill="none" xmlns="http://www.w3.org/2000/svg">
<g clip-path="url(#clip0_244_710)">
<path d="M83.109 22.2142C83.109 24.1138 83.1078 25.9391 83.109 27.7657C83.109 28.4121 83.1151 29.0585 83.131 29.7037C83.1358 29.91 83.0907 30.0011 82.8531 29.9999C80.9628 29.9915 79.0725 29.9939 77.181 29.9987C76.9946 29.9987 76.9409 29.9387 76.9434 29.7565C76.9568 28.1782 76.9665 26.6 76.9665 25.0217C76.9677 19.4007 76.9665 13.7784 76.9641 8.15742C76.9641 7.65852 76.9495 7.16082 76.9373 6.66191C76.9336 6.49881 76.9665 6.41007 77.1688 6.41127C79.0311 6.42086 80.8933 6.42206 82.7556 6.42566C82.7739 6.42566 82.7909 6.43525 82.8433 6.45084V8.16581C83.1261 7.90437 83.3589 7.65612 83.6233 7.44864C84.7068 6.59955 85.9767 6.26255 87.3356 6.16301C89.0053 6.04069 90.6263 6.28054 92.0912 7.05528C94.519 8.34091 96.0205 10.3629 96.5579 13.0277C96.9345 14.8986 96.8736 16.7766 96.1631 18.5612C94.9358 21.6445 92.6616 23.5214 89.2722 23.9675C87.6805 24.1774 86.1132 24.0515 84.6641 23.2935C84.2449 23.0741 83.8683 22.773 83.4759 22.5044C83.3637 22.4277 83.2601 22.3365 83.1054 22.2154L83.109 22.2142ZM83.0871 14.9993C83.0871 15.2871 83.0737 15.4826 83.0895 15.6745C83.1541 16.4972 83.3747 17.2696 83.9097 17.928C84.73 18.9389 85.8207 19.2963 87.1029 19.2124C88.5568 19.1176 89.5708 18.4125 90.1461 17.11C90.5446 16.207 90.5873 15.2572 90.4873 14.2881C90.2801 12.2829 88.6482 10.8642 86.6032 10.9517C85.0444 11.0177 83.9816 11.8008 83.3845 13.1968C83.1261 13.7988 83.0432 14.4392 83.0871 14.9993Z" fill="#2E2D2C"/>
<path d="M73.5408 23.7722C73.4348 23.7854 73.3726 23.7998 73.3105 23.7998C71.2983 23.7998 69.2849 23.7902 67.2728 23.801C66.9839 23.8022 66.8462 23.7218 66.7365 23.452C64.7073 18.4558 62.6671 13.4644 60.6282 8.47179C60.5099 8.18157 60.3856 7.89254 60.2467 7.55914C60.1784 7.68147 60.1139 7.77381 60.0724 7.87695C57.942 13.0926 55.8141 18.3083 53.6898 23.5264C53.6106 23.7194 53.5046 23.795 53.2949 23.795C51.2535 23.7902 49.2133 23.7938 47.1719 23.7938C47.1451 23.7938 47.1183 23.7818 47.0635 23.7686C47.0842 23.6979 47.0952 23.6283 47.1232 23.5647C48.3493 20.8232 49.5765 18.0828 50.8038 15.3425C51.7971 13.125 52.7916 10.9075 53.7885 8.69246C54.8501 6.33348 55.9177 3.97689 56.9731 1.61551C57.0706 1.39844 57.1901 1.31449 57.435 1.31569C59.3351 1.32528 61.2351 1.32408 63.1339 1.31569C63.3679 1.31569 63.4825 1.40563 63.5751 1.61071C66.7975 8.77401 70.0259 15.9349 73.252 23.0958C73.3495 23.3105 73.4372 23.53 73.5396 23.771L73.5408 23.7722Z" fill="#2E2D2C"/>
<path d="M100.478 15.0677C100.367 11.1088 102.859 7.92115 106.703 6.70508C109.699 5.75645 112.69 5.88477 115.523 7.30592C118.318 8.71028 119.986 10.9709 120.307 14.0663C120.599 16.8678 119.808 19.3527 117.721 21.3531C116.39 22.6279 114.771 23.4147 112.956 23.778C110.453 24.2781 107.991 24.1366 105.652 23.0597C102.682 21.6937 100.917 19.4187 100.486 16.201C100.436 15.8292 100.478 15.4454 100.478 15.0677ZM106.681 15.0605C106.681 15.2631 106.67 15.467 106.682 15.6697C106.807 17.7193 108.283 19.2855 110.419 19.228C112.114 19.1824 113.395 18.3105 113.896 16.7191C114.132 15.9671 114.15 15.1972 114.091 14.4165C113.949 12.5516 112.78 11.2492 110.902 10.9841C109.433 10.7766 108.029 11.3247 107.227 12.6667C106.782 13.4115 106.666 14.221 106.679 15.0605H106.681Z" fill="#2E2D2C"/>
<path d="M145.986 24.0875C144.005 24.0443 142.14 23.6162 140.428 22.6328C137.918 21.19 136.449 19.0409 136.108 16.2106C135.794 13.607 136.432 11.236 138.247 9.2548C139.677 7.69334 141.498 6.77109 143.583 6.36814C145.688 5.96158 147.786 6.03713 149.813 6.74591C152.689 7.75211 154.808 9.58701 155.614 12.542C156.514 15.8472 155.867 18.8646 153.34 21.3436C151.922 22.7335 150.156 23.5131 148.194 23.8476C147.465 23.9724 146.722 24.0096 145.984 24.0863L145.986 24.0875ZM145.977 19.2184C147.821 19.222 149.123 18.241 149.575 16.4829C149.817 15.5378 149.82 14.5832 149.565 13.6382C149.145 12.0743 147.877 11.0381 146.306 10.953C144.557 10.8594 143.174 11.6678 142.59 13.1729C142.233 14.0951 142.206 15.0521 142.335 16.0331C142.557 17.7109 143.891 19.306 145.977 19.2184Z" fill="#2E2D2C"/>
<path d="M31.7924 16.6483C32.1129 17.808 32.782 18.6427 33.8728 19.0253C36.0848 19.8012 38.1786 19.5937 40.0457 18.0815C40.0823 18.0527 40.1176 18.0227 40.1542 17.9939C40.1615 17.9891 40.1713 17.9879 40.2529 17.9124C40.4345 18.121 40.6076 18.3381 40.7989 18.5372C41.6265 19.3947 42.4564 20.2497 43.2925 21.1C43.4205 21.2308 43.4168 21.3051 43.284 21.4346C41.791 22.893 39.969 23.6545 37.9044 23.9171C36.7234 24.0671 35.54 24.091 34.359 23.9627C32.0398 23.7097 29.9423 22.9265 28.219 21.3363C26.6992 19.9343 25.8595 18.1846 25.6377 16.1578C25.4536 14.4788 25.6328 12.8418 26.3835 11.2971C27.4865 9.02688 29.2903 7.5014 31.6936 6.70987C34.47 5.79362 37.2438 5.89676 39.8946 7.1608C42.5454 8.42484 44.1103 10.5536 44.5758 13.4043C44.7257 14.3253 44.6806 15.2787 44.6953 16.2178C44.7014 16.6159 44.6343 16.6483 44.1907 16.6483C40.203 16.6483 36.2152 16.6483 32.2275 16.6483C32.0983 16.6483 31.9691 16.6483 31.7924 16.6483ZM38.9428 13.4246C38.6381 11.6557 37.189 10.3161 35.0269 10.436C33.0599 10.5452 31.818 12.0191 31.707 13.4246H38.9428Z" fill="#2E2D2C"/>
<path d="M125.104 0H131.282V23.7757H125.104V0Z" fill="#2E2D2C"/>
<path d="M21.6574 16.7899C21.4588 15.1565 20.6264 13.8576 19.2187 12.9474C18.7056 12.6152 18.1474 12.3513 17.588 12.0455C17.6672 11.9928 17.7611 11.9376 17.8476 11.874C18.2583 11.5694 18.7117 11.3032 19.07 10.947C20.0694 9.95398 20.5545 8.7463 20.5886 7.33595C20.6276 5.68934 20.0231 4.35334 18.7592 3.29078C18.0341 2.68154 17.1944 2.27858 16.2986 1.97876C14.7191 1.45108 13.075 1.34315 11.4297 1.32875C7.771 1.29877 4.11231 1.31796 0.453621 1.31916C0.315902 1.31916 0.176965 1.33235 0.0246211 1.33955V2.54722H0.00146484V23.7961H2.90331C3.78568 23.7973 4.66806 23.7961 5.55043 23.7961H6.17931C7.03853 23.7937 7.89775 23.7949 8.75696 23.7901C10.5522 23.7793 12.3498 23.7601 14.1426 23.6809C15.6441 23.6138 17.1078 23.3068 18.4619 22.6352C20.9688 21.3915 21.9804 19.4367 21.6574 16.7911V16.7899ZM13.0872 6.33215C13.5686 6.5816 13.9037 6.95218 14.0415 7.47387C14.3669 8.69833 13.7746 9.7477 12.5192 10.0463C11.916 10.1902 11.2749 10.2322 10.6509 10.2358C9.16037 10.243 7.66984 10.2442 6.17809 10.2442V5.9124C7.80756 5.9124 9.43703 5.9124 11.0665 5.9124C11.7685 5.9124 12.4534 6.00475 13.0872 6.33215ZM13.777 18.9198C13.2078 19.0853 12.5985 19.1884 12.0062 19.192C10.0635 19.204 8.12078 19.2064 6.17809 19.2064V14.6432C8.11468 14.6432 10.0525 14.6444 11.9891 14.654C12.5631 14.6564 13.1518 14.7487 13.7075 14.8962C14.6862 15.1553 15.2017 15.8844 15.2151 16.887C15.2285 17.91 14.7569 18.6344 13.7758 18.9186L13.777 18.9198Z" fill="#2E2D2C"/>
</g>
<defs>
<clipPath id="clip0_244_710">
<rect width="156" height="30" fill="white"/>
</clipPath>
</defs>
</svg>
